<svg width="500" height="500" viewBox="0 0 500 500" fill="none" xmlns="http://www.w3.org/2000/svg">
<rect width="500" height="500" fill="white"/>
<path d="M75.1 323C75.1 316.1 75.1 309.41 75.1 302.93C75.1 296.45 75.1 289.19 75.1 281.15V237.59C75.1 229.31 75.1 221.84 75.1 215.18C75.1 208.52 75.1 201.68 75.1 194.66C79 194.66 83.59 194.66 88.87 194.66C94.21 194.66 99.91 194.66 105.97 194.66C112.03 194.66 118.15 194.66 124.33 194.66C134.77 194.66 143.59 195.83 150.79 198.17C158.05 200.45 163.54 204.29 167.26 209.69C171.04 215.09 172.93 222.44 172.93 231.74C172.93 239.12 171.46 245.75 168.52 251.63C165.64 257.51 160.99 262.16 154.57 265.58C148.15 269 139.75 270.71 129.37 270.71L140.8 259.91L158.26 285.65C160.96 289.61 163.84 293.87 166.9 298.43C169.96 302.93 172.93 307.34 175.81 311.66C178.75 315.92 181.33 319.7 183.55 323H149.98C146.74 317.96 143.62 313.13 140.62 308.51C137.62 303.89 134.71 299.39 131.89 295.01L111.1 262.25L128.65 275.66H98.86V254.51H120.28C125.08 254.51 129.1 253.94 132.34 252.8C135.64 251.6 138.13 249.59 139.81 246.77C141.49 243.95 142.33 240.08 142.33 235.16C142.33 231.5 141.79 228.56 140.71 226.34C139.63 224.06 138.16 222.29 136.3 221.03C134.5 219.77 132.46 218.93 130.18 218.51C127.96 218.09 125.71 217.88 123.43 217.88H83.11L104.17 199.34C104.17 206.6 104.17 213.56 104.17 220.22C104.17 226.82 104.17 234.17 104.17 242.27V281.15C104.17 289.19 104.17 296.45 104.17 302.93C104.17 309.41 104.17 316.1 104.17 323H75.1ZM257.43 325.43C246.99 325.43 237.6 323.84 229.26 320.66C220.92 317.48 213.78 312.95 207.84 307.07C201.96 301.13 197.46 294.11 194.34 286.01C191.22 277.85 189.66 268.82 189.66 258.92C189.66 246.08 192.27 234.62 197.49 224.54C202.71 214.4 210.21 206.45 219.99 200.69C229.77 194.93 241.47 192.05 255.09 192.05C259.23 192.05 263.31 192.32 267.33 192.86C271.41 193.4 275.31 194.12 279.03 195.02C282.75 195.92 286.2 196.97 289.38 198.17C292.62 199.31 295.5 200.54 298.02 201.86L295.77 229.4C291.09 226.46 286.59 224.12 282.27 222.38C277.95 220.58 273.78 219.29 269.76 218.51C265.8 217.67 262.02 217.25 258.42 217.25C251.1 217.25 244.59 218.87 238.89 222.11C233.19 225.29 228.69 230 225.39 236.24C222.15 242.42 220.53 249.98 220.53 258.92C220.53 264.62 221.37 270.02 223.05 275.12C224.73 280.16 227.25 284.63 230.61 288.53C234.03 292.43 238.29 295.49 243.39 297.71C248.49 299.93 254.46 301.04 261.3 301.04C264.12 301.04 266.94 300.86 269.76 300.5C272.64 300.08 275.52 299.45 278.4 298.61C281.28 297.77 284.16 296.63 287.04 295.19C289.92 293.69 292.8 291.89 295.68 289.79L297.3 316.97C294.72 318.41 291.87 319.67 288.75 320.75C285.63 321.83 282.33 322.7 278.85 323.36C275.43 324.08 271.89 324.59 268.23 324.89C264.63 325.25 261.03 325.43 257.43 325.43ZM346.367 325.34C341.927 325.34 337.697 325.07 333.677 324.53C329.657 324.05 325.967 323.36 322.607 322.46C319.247 321.5 316.307 320.42 313.787 319.22L315.497 296.45C318.137 298.07 321.077 299.51 324.317 300.77C327.617 301.97 330.977 302.9 334.397 303.56C337.877 304.22 341.267 304.55 344.567 304.55C346.967 304.55 349.127 304.34 351.047 303.92C352.967 303.44 354.467 302.63 355.547 301.49C356.627 300.29 357.167 298.52 357.167 296.18C357.167 294.5 356.567 293.12 355.367 292.04C354.227 290.96 352.277 289.97 349.517 289.07C346.817 288.11 343.097 287.03 338.357 285.83C333.017 284.45 328.517 282.71 324.857 280.61C321.197 278.45 318.437 275.69 316.577 272.33C314.717 268.97 313.787 264.68 313.787 259.46C313.787 250.4 316.727 243.38 322.607 238.4C328.547 233.36 336.617 230.84 346.817 230.84C351.257 230.84 355.517 231.14 359.597 231.74C363.677 232.34 367.367 233.15 370.667 234.17C374.027 235.13 376.847 236.12 379.127 237.14L377.327 260.09C374.567 258.35 371.567 256.91 368.327 255.77C365.087 254.57 361.967 253.67 358.967 253.07C356.027 252.47 353.597 252.17 351.677 252.17C349.757 252.17 347.987 252.44 346.367 252.98C344.807 253.46 343.577 254.27 342.677 255.41C341.777 256.55 341.327 258.05 341.327 259.91C341.327 261.47 341.717 262.85 342.497 264.05C343.277 265.19 344.747 266.27 346.907 267.29C349.067 268.25 352.217 269.3 356.357 270.44C362.837 272.18 368.147 274.07 372.287 276.11C376.427 278.09 379.487 280.64 381.467 283.76C383.507 286.88 384.527 291.02 384.527 296.18C384.527 301.94 383.207 307.04 380.567 311.48C377.987 315.86 373.877 319.28 368.237 321.74C362.657 324.14 355.367 325.34 346.367 325.34ZM412.862 325.43C409.382 325.43 406.382 324.71 403.862 323.27C401.402 321.83 399.482 319.88 398.102 317.42C396.782 314.9 396.122 312.11 396.122 309.05C396.122 304.37 397.622 300.53 400.622 297.53C403.622 294.53 407.732 293.03 412.952 293.03C416.432 293.03 419.402 293.72 421.862 295.1C424.382 296.42 426.302 298.31 427.622 300.77C429.002 303.17 429.692 305.93 429.692 309.05C429.692 313.67 428.192 317.57 425.192 320.75C422.252 323.87 418.142 325.43 412.862 325.43Z" fill="#2662D9"/>
</svg>
